<svg width="473" height="143" viewBox="0 0 473 143" fill="none" xmlns="http://www.w3.org/2000/svg">
<path class="st0" d="M198.225 80.5747C195.874 80.5747 193.961 79.7821 192.485 78.1967C191.063 76.6114 189.806 73.9601 188.713 70.2427L174.445 22.2727H180.349L194.535 70.1607C195.027 71.9101 195.546 73.1674 196.093 73.9327C196.694 74.6981 197.405 75.0807 198.225 75.0807C198.99 75.0807 199.646 74.7254 200.193 74.0147C200.739 73.2494 201.286 71.9647 201.833 70.1607L216.019 22.2727H222.005L207.737 70.2427C206.643 73.9054 205.359 76.5567 203.883 78.1967C202.407 79.7821 200.521 80.5747 198.225 80.5747Z" stroke="#26374A" fill="#26374A" />
<path class="st0" d="M275.358 79.6727H269.044L265.108 64.9127C264.342 62.0701 263.468 59.8561 262.484 58.2707C261.5 56.6854 260.133 55.5374 258.384 54.8267C256.689 54.0614 254.366 53.6787 251.414 53.6787H238.13V79.6727H232.226V22.2727H256.826C262.183 22.2727 266.256 23.6121 269.044 26.2907C271.886 28.9694 273.308 32.7414 273.308 37.6067C273.308 41.7067 272.324 44.9867 270.356 47.4467C268.442 49.8521 265.709 51.3554 262.156 51.9567C264.561 52.8314 266.42 54.2801 267.732 56.3027C269.098 58.3254 270.301 61.1954 271.34 64.9127L275.358 79.6727ZM256.17 48.9227C259.723 48.9227 262.484 47.9661 264.452 46.0527C266.42 44.1394 267.404 41.4607 267.404 38.0167C267.404 34.5181 266.42 31.8121 264.452 29.8987C262.484 27.9854 259.723 27.0287 256.17 27.0287H238.13V48.9227H256.17Z" stroke="#26374A" fill="#26374A" />
<path class="st0" d="M304.969 39.4107C304.969 33.6161 306.499 29.3247 309.561 26.5367C312.677 23.6941 317.433 22.2727 323.829 22.2727H343.591V27.0287H323.829C319.401 27.0287 316.121 28.0401 313.989 30.0627C311.911 32.0854 310.873 35.2014 310.873 39.4107V50.2347H339.409V54.9907H310.873V79.6727H304.969V39.4107Z" stroke="#26374A" fill="#26374A" />
<path class="st0" d="M355.066 22.2727H360.97V79.6727H355.066V22.2727Z" stroke="#26374A" fill="#26374A" />
<path class="st0" d="M376.526 22.2727H401.454C406.21 22.2727 410.037 23.5847 412.934 26.2087C415.832 28.7781 417.28 32.1947 417.28 36.4587C417.28 39.6294 416.433 42.3627 414.738 44.6587C413.044 46.9001 410.693 48.4581 407.686 49.3327C411.24 50.2074 414 51.9294 415.968 54.4987C417.991 57.0134 419.002 60.1567 419.002 63.9287C419.002 68.7941 417.39 72.6481 414.164 75.4907C410.939 78.2787 406.566 79.6727 401.044 79.6727H376.526V22.2727ZM400.962 47.1187C404.024 47.1187 406.511 46.1894 408.424 44.3307C410.392 42.4174 411.376 39.9847 411.376 37.0327C411.376 33.9714 410.42 31.5387 408.506 29.7347C406.648 27.9307 404.133 27.0287 400.962 27.0287H382.43V47.1187H400.962ZM399.65 74.9167C404.024 74.9167 407.358 73.9327 409.654 71.9647C411.95 69.9967 413.098 67.1541 413.098 63.4367C413.098 59.7194 411.923 56.8767 409.572 54.9087C407.276 52.8861 403.969 51.8747 399.65 51.8747H382.43V74.9167H399.65Z" stroke="#26374A" fill="#26374A" />
<path class="st0" d="M452.128 80.5747C444.529 80.5747 438.735 78.7981 434.744 75.2447C430.808 71.6914 428.84 66.4981 428.84 59.6647V42.1987C428.84 35.4747 430.753 30.3361 434.58 26.7827C438.461 23.1747 444.037 21.3707 451.308 21.3707C456.064 21.3707 460.137 22.1361 463.526 23.6667C466.915 25.1427 469.703 27.4661 471.89 30.6367L467.708 33.6707C465.795 31.1014 463.526 29.2154 460.902 28.0127C458.333 26.7554 455.217 26.1267 451.554 26.1267C446.087 26.1267 441.905 27.4934 439.008 30.2267C436.165 32.9601 434.744 36.9507 434.744 42.1987V59.6647C434.744 64.9674 436.193 68.9854 439.09 71.7187C442.042 74.4521 446.361 75.8187 452.046 75.8187C455.818 75.8187 459.016 75.1901 461.64 73.9327C464.264 72.6754 466.533 70.7074 468.446 68.0287L472.628 71.2267C470.168 74.5067 467.325 76.8847 464.1 78.3607C460.875 79.8367 456.884 80.5747 452.128 80.5747Z" stroke="#26374A" fill="#26374A" />
<path class="st0" d="M177.887 117.961C176.76 117.961 175.798 117.797 175.001 117.467C174.221 117.121 173.475 116.549 172.765 115.751L173.883 114.581C174.42 115.24 174.992 115.717 175.599 116.011C176.223 116.306 176.968 116.453 177.835 116.453C179.117 116.453 180.105 116.133 180.799 115.491C181.492 114.833 181.839 113.897 181.839 112.683V99.4755H183.711V112.735C183.711 114.417 183.208 115.708 182.203 116.609C181.197 117.511 179.759 117.961 177.887 117.961Z" stroke="#FF991A" fill="#FF991A" />
<path class="st0" d="M194.253 117.961C192.104 117.961 190.414 117.502 189.183 116.583C187.97 115.647 187.363 114.365 187.363 112.735V99.4755H189.235V112.735C189.235 113.897 189.677 114.807 190.561 115.465C191.445 116.124 192.676 116.453 194.253 116.453C195.83 116.453 197.061 116.124 197.945 115.465C198.829 114.807 199.271 113.897 199.271 112.735V99.4755H201.143V112.735C201.143 114.365 200.528 115.647 199.297 116.583C198.084 117.502 196.402 117.961 194.253 117.961Z" stroke="#FF991A" fill="#FF991A" />
<path class="st0" d="M205.431 99.4755H206.549C207.312 99.4755 207.927 99.6488 208.395 99.9955C208.88 100.325 209.348 100.923 209.799 101.789L213.647 109.147L217.495 101.789C217.946 100.923 218.405 100.325 218.873 99.9955C219.358 99.6488 219.982 99.4755 220.745 99.4755H221.863V117.675H220.095V101.347C219.852 101.382 219.636 101.477 219.445 101.633C219.272 101.772 219.09 102.023 218.899 102.387L213.647 112.267L208.395 102.387C208.187 102.006 207.996 101.746 207.823 101.607C207.65 101.451 207.442 101.365 207.199 101.347V117.675H205.431V99.4755Z" stroke="#FF991A" fill="#FF991A" />
<path class="st0" d="M226.81 99.4755H234.714C236.222 99.4755 237.435 99.8915 238.354 100.723C239.273 101.538 239.732 102.621 239.732 103.973C239.732 104.979 239.463 105.845 238.926 106.573C238.389 107.284 237.643 107.778 236.69 108.055C237.817 108.333 238.692 108.879 239.316 109.693C239.957 110.491 240.278 111.487 240.278 112.683C240.278 114.226 239.767 115.448 238.744 116.349C237.721 117.233 236.335 117.675 234.584 117.675H226.81V99.4755ZM234.558 107.353C235.529 107.353 236.317 107.059 236.924 106.469C237.548 105.863 237.86 105.091 237.86 104.155C237.86 103.185 237.557 102.413 236.95 101.841C236.361 101.269 235.563 100.983 234.558 100.983H228.682V107.353H234.558ZM234.142 116.167C235.529 116.167 236.586 115.855 237.314 115.231C238.042 114.607 238.406 113.706 238.406 112.527C238.406 111.349 238.033 110.447 237.288 109.823C236.56 109.182 235.511 108.861 234.142 108.861H228.682V116.167H234.142Z" stroke="#FF991A" fill="#FF991A" />
<path class="st0" d="M250.547 117.961C248.242 117.961 246.474 117.398 245.243 116.271C244.013 115.127 243.397 113.481 243.397 111.331V105.819C243.397 103.67 244.013 102.032 245.243 100.905C246.474 99.7615 248.242 99.1895 250.547 99.1895C252.853 99.1895 254.621 99.7615 255.851 100.905C257.082 102.032 257.697 103.67 257.697 105.819V111.331C257.697 113.481 257.082 115.127 255.851 116.271C254.621 117.398 252.853 117.961 250.547 117.961ZM250.547 116.453C252.246 116.453 253.546 116.011 254.447 115.127C255.366 114.243 255.825 112.978 255.825 111.331V105.819C255.825 104.173 255.366 102.907 254.447 102.023C253.546 101.139 252.246 100.697 250.547 100.697C248.849 100.697 247.54 101.139 246.621 102.023C245.72 102.907 245.269 104.173 245.269 105.819V111.331C245.269 112.978 245.72 114.243 246.621 115.127C247.54 116.011 248.849 116.453 250.547 116.453Z" stroke="#FF991A" fill="#FF991A" />
<path class="st0" d="M268.298 99.4755H276.202C277.71 99.4755 278.924 99.8915 279.842 100.723C280.761 101.538 281.22 102.621 281.22 103.973C281.22 104.979 280.952 105.845 280.414 106.573C279.877 107.284 279.132 107.778 278.178 108.055C279.305 108.333 280.18 108.879 280.804 109.693C281.446 110.491 281.766 111.487 281.766 112.683C281.766 114.226 281.255 115.448 280.232 116.349C279.21 117.233 277.823 117.675 276.072 117.675H268.298V99.4755ZM276.046 107.353C277.017 107.353 277.806 107.059 278.412 106.469C279.036 105.863 279.348 105.091 279.348 104.155C279.348 103.185 279.045 102.413 278.438 101.841C277.849 101.269 277.052 100.983 276.046 100.983H270.17V107.353H276.046ZM275.63 116.167C277.017 116.167 278.074 115.855 278.802 115.231C279.53 114.607 279.894 113.706 279.894 112.527C279.894 111.349 279.522 110.447 278.776 109.823C278.048 109.182 277 108.861 275.63 108.861H270.17V116.167H275.63Z" stroke="#FF991A" fill="#FF991A" />
<path class="st0" d="M295.197 111.825H286.981L285.187 117.675H283.315L288.021 102.465C288.403 101.235 288.81 100.385 289.243 99.9175C289.694 99.4322 290.309 99.1895 291.089 99.1895C291.869 99.1895 292.485 99.4322 292.935 99.9175C293.386 100.385 293.802 101.235 294.183 102.465L298.889 117.675H296.991L295.197 111.825ZM294.755 110.369L292.337 102.491C292.147 101.902 291.965 101.495 291.791 101.269C291.618 101.044 291.384 100.931 291.089 100.931C290.812 100.931 290.587 101.044 290.413 101.269C290.24 101.495 290.058 101.902 289.867 102.491L287.449 110.369H294.755Z" stroke="#FF991A" fill="#FF991A" />
<path class="st0" d="M307.73 117.961C305.355 117.961 303.544 117.398 302.296 116.271C301.065 115.127 300.45 113.481 300.45 111.331V105.793C300.45 103.627 301.065 101.989 302.296 100.879C303.544 99.7528 305.373 99.1895 307.782 99.1895C310.677 99.1895 312.843 100.047 314.282 101.763L312.93 102.855C311.717 101.417 309.992 100.697 307.756 100.697C305.953 100.697 304.593 101.131 303.674 101.997C302.773 102.847 302.322 104.112 302.322 105.793V111.331C302.322 113.03 302.781 114.313 303.7 115.179C304.619 116.029 305.971 116.453 307.756 116.453C309.316 116.453 310.555 116.15 311.474 115.543C312.393 114.937 312.852 114.122 312.852 113.099V111.435C312.852 110.655 312.644 110.066 312.228 109.667C311.812 109.251 311.214 109.043 310.434 109.043H307.314V107.535H310.824C313.389 107.535 314.672 108.775 314.672 111.253V113.203C314.672 114.174 314.386 115.015 313.814 115.725C313.259 116.436 312.453 116.991 311.396 117.389C310.356 117.771 309.134 117.961 307.73 117.961Z" stroke="#FF991A" fill="#FF991A" />
<path class="st0" d="M324.97 99.4755H326.842V117.675H324.97V99.4755Z" stroke="#FF991A" fill="#FF991A" />
<path class="st0" d="M345.789 99.4755V114.971C345.789 115.89 345.598 116.575 345.217 117.025C344.835 117.459 344.246 117.675 343.449 117.675H342.123L333.569 102.283V117.675H331.775V99.4755H334.011L343.111 116.037H343.293C343.553 116.037 343.735 115.942 343.839 115.751C343.943 115.561 343.995 115.223 343.995 114.737V99.4755H345.789Z" stroke="#FF991A" fill="#FF991A" />
<path class="st0" d="M350.412 99.4755H356.886C358.792 99.4755 360.3 99.7701 361.41 100.359C362.536 100.949 363.351 101.902 363.854 103.219C364.356 104.537 364.608 106.322 364.608 108.575C364.608 110.846 364.356 112.64 363.854 113.957C363.368 115.257 362.562 116.202 361.436 116.791C360.326 117.381 358.81 117.675 356.886 117.675H350.412V99.4755ZM356.886 116.167C358.324 116.167 359.468 115.925 360.318 115.439C361.167 114.937 361.782 114.139 362.164 113.047C362.545 111.938 362.736 110.456 362.736 108.601C362.736 106.747 362.536 105.265 362.138 104.155C361.756 103.046 361.141 102.24 360.292 101.737C359.442 101.235 358.307 100.983 356.886 100.983H352.284V116.167H356.886Z" stroke="#FF991A" fill="#FF991A" />
<path class="st0" d="M374.882 117.961C372.733 117.961 371.043 117.502 369.812 116.583C368.599 115.647 367.992 114.365 367.992 112.735V99.4755H369.864V112.735C369.864 113.897 370.306 114.807 371.19 115.465C372.074 116.124 373.305 116.453 374.882 116.453C376.459 116.453 377.69 116.124 378.574 115.465C379.458 114.807 379.9 113.897 379.9 112.735V99.4755H381.772V112.735C381.772 114.365 381.157 115.647 379.926 116.583C378.713 117.502 377.031 117.961 374.882 117.961Z" stroke="#FF991A" fill="#FF991A" />
<path class="st0" d="M391.546 117.961C389.951 117.961 388.634 117.727 387.594 117.259C386.571 116.774 385.627 115.959 384.76 114.815L386.034 113.697C386.779 114.703 387.551 115.413 388.348 115.829C389.163 116.245 390.194 116.453 391.442 116.453C393.071 116.453 394.328 116.141 395.212 115.517C396.113 114.893 396.564 114.018 396.564 112.891C396.564 112.181 396.399 111.617 396.07 111.201C395.741 110.785 395.16 110.43 394.328 110.135C393.496 109.823 392.265 109.503 390.636 109.173C388.851 108.827 387.525 108.255 386.658 107.457C385.809 106.66 385.384 105.594 385.384 104.259C385.384 102.682 385.947 101.443 387.074 100.541C388.218 99.6401 389.787 99.1895 391.78 99.1895C393.201 99.1895 394.432 99.4408 395.472 99.9435C396.512 100.429 397.318 101.148 397.89 102.101L396.616 103.141C396.079 102.344 395.394 101.737 394.562 101.321C393.747 100.905 392.803 100.697 391.728 100.697C390.359 100.697 389.267 101.009 388.452 101.633C387.655 102.257 387.256 103.098 387.256 104.155C387.256 105.091 387.611 105.837 388.322 106.391C389.033 106.929 390.203 107.362 391.832 107.691C393.548 108.038 394.874 108.428 395.81 108.861C396.763 109.295 397.439 109.823 397.838 110.447C398.237 111.054 398.436 111.851 398.436 112.839C398.436 114.503 397.847 115.777 396.668 116.661C395.489 117.528 393.782 117.961 391.546 117.961Z" stroke="#FF991A" fill="#FF991A" />
<path class="st0" d="M405.836 100.983H399.934V99.4755H413.61V100.983H407.708V117.675H405.836V100.983Z" stroke="#FF991A" fill="#FF991A" />
<path class="st0" d="M430.535 117.675H428.533L427.285 112.995C427.042 112.094 426.765 111.392 426.453 110.889C426.141 110.387 425.707 110.023 425.153 109.797C424.615 109.555 423.879 109.433 422.943 109.433H418.731V117.675H416.859V99.4755H424.659C426.357 99.4755 427.649 99.9002 428.533 100.749C429.434 101.599 429.885 102.795 429.885 104.337C429.885 105.637 429.573 106.677 428.949 107.457C428.342 108.22 427.475 108.697 426.349 108.887C427.111 109.165 427.701 109.624 428.117 110.265C428.55 110.907 428.932 111.817 429.261 112.995L430.535 117.675ZM424.451 107.925C425.578 107.925 426.453 107.622 427.077 107.015C427.701 106.409 428.013 105.559 428.013 104.467C428.013 103.358 427.701 102.5 427.077 101.893C426.453 101.287 425.578 100.983 424.451 100.983H418.731V107.925H424.451Z" stroke="#FF991A" fill="#FF991A" />
<path class="st0" d="M434.124 99.4755H435.996V117.675H434.124V99.4755Z" stroke="#FF991A" fill="#FF991A" />
<path class="st0" d="M446.077 117.675C444.049 117.675 442.541 117.233 441.553 116.349C440.582 115.448 440.097 114.079 440.097 112.241V104.909C440.097 103.072 440.582 101.711 441.553 100.827C442.541 99.9262 444.049 99.4755 446.077 99.4755H452.343V100.983H446.077C444.673 100.983 443.633 101.304 442.957 101.945C442.298 102.587 441.969 103.575 441.969 104.909V107.821H451.017V109.329H441.969V112.241C441.969 113.576 442.298 114.564 442.957 115.205C443.633 115.847 444.673 116.167 446.077 116.167H452.499V117.675H446.077Z" stroke="#FF991A" fill="#FF991A" />
<path class="st0" d="M461.624 117.961C460.029 117.961 458.712 117.727 457.672 117.259C456.649 116.774 455.705 115.959 454.838 114.815L456.112 113.697C456.857 114.703 457.629 115.413 458.426 115.829C459.241 116.245 460.272 116.453 461.52 116.453C463.149 116.453 464.406 116.141 465.29 115.517C466.191 114.893 466.642 114.018 466.642 112.891C466.642 112.181 466.477 111.617 466.148 111.201C465.819 110.785 465.238 110.43 464.406 110.135C463.574 109.823 462.343 109.503 460.714 109.173C458.929 108.827 457.603 108.255 456.736 107.457C455.887 106.66 455.462 105.594 455.462 104.259C455.462 102.682 456.025 101.443 457.152 100.541C458.296 99.6401 459.865 99.1895 461.858 99.1895C463.279 99.1895 464.51 99.4408 465.55 99.9435C466.59 100.429 467.396 101.148 467.968 102.101L466.694 103.141C466.157 102.344 465.472 101.737 464.64 101.321C463.825 100.905 462.881 100.697 461.806 100.697C460.437 100.697 459.345 101.009 458.53 101.633C457.733 102.257 457.334 103.098 457.334 104.155C457.334 105.091 457.689 105.837 458.4 106.391C459.111 106.929 460.281 107.362 461.91 107.691C463.626 108.038 464.952 108.428 465.888 108.861C466.841 109.295 467.517 109.823 467.916 110.447C468.315 111.054 468.514 111.851 468.514 112.839C468.514 114.503 467.925 115.777 466.746 116.661C465.567 117.528 463.86 117.961 461.624 117.961Z" stroke="#FF991A" fill="#FF991A" />
<path class="st0" d="M156.417 140.055H141.017L131.417 104.055C129.55 97.1216 127.417 91.7216 125.017 87.8549C122.617 83.9883 119.283 81.1883 115.017 79.455C110.883 77.5883 105.217 76.655 98.0166 76.655H65.6166V140.055H51.2166V0.0549448H111.217C124.283 0.0549448 134.217 3.32161 141.017 9.85495C147.95 16.3883 151.417 25.5883 151.417 37.455C151.417 47.455 149.017 55.4549 144.217 61.455C139.55 67.3216 132.883 70.9883 124.217 72.4549C130.083 74.5883 134.617 78.1216 137.817 83.0549C141.15 87.9883 144.083 94.9883 146.617 104.055L156.417 140.055ZM109.617 65.0549C118.283 65.0549 125.017 62.7216 129.817 58.055C134.617 53.3883 137.017 46.855 137.017 38.455C137.017 29.9216 134.617 23.3216 129.817 18.6549C125.017 13.9883 118.283 11.655 109.617 11.655H65.6166V65.0549H109.617Z" stroke="#26374A" fill="#26374A" />
<path class="st0" d="M58 142.2C52.2667 142.2 47.6 140.267 44 136.4C40.5333 132.533 37.4667 126.067 34.8 117L0 -7.62939e-06H14.4L49 116.8C50.2 121.067 51.4667 124.133 52.8 126C54.2667 127.867 56 128.8 58 128.8C59.8667 128.8 61.4667 127.933 62.8 126.2C64.1333 124.333 65.4667 121.2 66.8 116.8L101.4 -7.62939e-06H116L81.2 117C78.5333 125.933 75.4 132.4 71.8 136.4C68.2 140.267 63.6 142.2 58 142.2Z" stroke="#FF991A" fill="#FF991A" />
<path class="st0" d="M89.7911 123.584C89.7911 122.1 90.1831 121.001 90.9671 120.287C91.7651 119.559 92.9831 119.195 94.6211 119.195H99.6821V120.413H94.6211C93.4871 120.413 92.6471 120.672 92.1011 121.19C91.5691 121.708 91.3031 122.506 91.3031 123.584V126.356H98.6111V127.574H91.3031V133.895H89.7911V123.584Z" stroke="#26374A" fill="#26374A" />
<path class="st0" d="M102.621 119.195H104.133V133.895H102.621V119.195Z" stroke="#26374A" fill="#26374A" />
<path class="st0" d="M108.117 119.195H114.501C115.719 119.195 116.699 119.531 117.441 120.203C118.183 120.861 118.554 121.736 118.554 122.828C118.554 123.64 118.337 124.34 117.903 124.928C117.469 125.502 116.867 125.901 116.097 126.125C117.007 126.349 117.714 126.79 118.218 127.448C118.736 128.092 118.995 128.897 118.995 129.863C118.995 131.109 118.582 132.096 117.756 132.824C116.93 133.538 115.81 133.895 114.396 133.895H108.117V119.195ZM114.375 125.558C115.159 125.558 115.796 125.32 116.286 124.844C116.79 124.354 117.042 123.731 117.042 122.975C117.042 122.191 116.797 121.568 116.307 121.106C115.831 120.644 115.187 120.413 114.375 120.413H109.629V125.558H114.375ZM114.039 132.677C115.159 132.677 116.013 132.425 116.601 131.921C117.189 131.417 117.483 130.689 117.483 129.737C117.483 128.785 117.182 128.057 116.58 127.553C115.992 127.035 115.145 126.776 114.039 126.776H109.629V132.677H114.039Z" stroke="#26374A" fill="#26374A" />
<path class="st0" d="M127.478 134.126C125.532 134.126 124.048 133.671 123.026 132.761C122.018 131.851 121.514 130.521 121.514 128.771V124.298C121.514 122.576 122.004 121.26 122.984 120.35C123.978 119.426 125.406 118.964 127.268 118.964C128.486 118.964 129.529 119.16 130.397 119.552C131.265 119.93 131.979 120.525 132.539 121.337L131.468 122.114C130.978 121.456 130.397 120.973 129.725 120.665C129.067 120.343 128.269 120.182 127.331 120.182C125.931 120.182 124.86 120.532 124.118 121.232C123.39 121.932 123.026 122.954 123.026 124.298V128.771C123.026 130.129 123.397 131.158 124.139 131.858C124.895 132.558 126.001 132.908 127.457 132.908C128.423 132.908 129.242 132.747 129.914 132.425C130.586 132.103 131.167 131.599 131.657 130.913L132.728 131.732C132.098 132.572 131.37 133.181 130.544 133.559C129.718 133.937 128.696 134.126 127.478 134.126Z" stroke="#26374A" fill="#26374A" />
</svg>
